<?xml version="1.0" encoding="UTF-8"?><svg xmlns="http://www.w3.org/2000/svg" viewBox="0 0 332.758 349.931"><g style="isolation:isolate;"><g id="Layer_2"><g id="Layer_3"><path d="M192.736,74.299s1.266,15.097-9.32,30.49c0,0-1.55-25.55,9.32-30.49Z" style="fill:#4c7a4c;"/><path d="M296.216,269.969c-5.07-.91-12.22-1.91-20.16-2.85-17.48-2.06-38.76-3.86-49.86-3.93-5.15-.03-9.47.08-13-.95-6.88-1.99-10.62-5.73-10.62-5.73,0,0-3.57-18.4,23.98-18.44h.11c13.08,0,30.85,4.05,44.88,7.94,12.94,3.58,22.7,7.02,22.7,7.02,0,0,4.98,9.41,1.97,16.94Z" style="fill:#f7b98b;"/><path d="M257.347,151.429s-4.47,10.965-12,6.635c-4.14-5.45-15.061-21.085-20.141-25.785-5.08-4.71-12.61-14.69-13.55-20.71-3.05-1.44-22.24-6.3-27.84-7.71-.51-.13-.91-.23-1.17-.29l-.36-.09s-.18-.7-.41-1.87c-.15-.79-.32-1.8-.47-2.95v-.03c-.38-6.97,3.5-15.58,5.36-19.29.98-.64,2.11-1.14,3.43-1.46,0,0,3.83,1.02,8.86,2.52,7.92,2.37,18.82,5.93,22.39,8.58,5.83,4.33,14.11,16.38,21.64,35.77s14.261,26.68,14.261,26.68Z" style="fill:#ffd4b0;"/><path d="M89.253,110.299s-15.247,12.565-17.929,14.824c-2.682,2.259-21.035,14.541-17.223,22.165,3.812,7.624,21.318,7.059,50.259-14.682,8.612-6.353-15.106-22.306-15.106-22.306Z" style="fill:#f7b98b;"/><path d="M107.266,135.129c-.33.02-.64-.02-.93-.12-3.57-1.31-7.38-6.02-10.6-11.04-4.44-6.9-7.75-14.38-7.75-14.38,0,0,19.76-16.37,32.56-30.02,22.19,4-3.86,54.92-13.28,55.56Z" style="fill:#cde4f9;"/><path d="M112.546,106.769l-5.28,28.36c-.33.02-.64-.02-.93-.12-3.57-1.31-7.38-6.02-10.6-11.04,8.46-6.48,16.81-17.2,16.81-17.2Z" style="fill:#c2cec4; mix-blend-mode:multiply;"/><path d="M199.056,80.399c-7.02,5.42-13.59,19.68-15.24,23.46-.51-.13-.91-.23-1.17-.29-.32-.62-.58-1.27-.77-1.96-.26-.93-.42-1.92-.47-2.95v-.03c-.38-6.97,3.5-15.58,5.36-19.29.98-.64,2.11-1.14,3.43-1.46,0,0,3.83,1.02,8.86,2.52Z" style="fill:#f7b98b;"/><path d="M185.676,148.839s-1.1,2.58-4.01,6.18c-5,6.2-15.37,15.4-34.67,19.52-9.11-8.18-21.5-26.02-25.51-31.94-.84-1.23-1.31-1.95-1.31-1.95,0,0-16.28-2.18-17.74-12.19-.11-.78-.13-1.61-.05-2.49.34-3.61,1.27-8.81,2.65-14.45.23-.96.47-1.92.73-2.9,3.35-12.6,8.77-26.35,14.78-29.05,9.23-4.14,17.48-10.07,17.48-10.07l5.3-2.12s.79-.07,2.13.28c4.35,1.17,14.46,6.87,21.59,34.31.14.52.27,1.04.41,1.55,9.17,34.63,18.22,45.32,18.22,45.32Z" style="fill:#358e81;"/><path d="M183.416,104.789c-7.84-.49-12.82-.93-15.95-1.27h-.01c-3.96-.43-4.93-.7-4.93-.7,0,0,.87,9.6-5.25,12.69-.84.42-1.81.72-2.94.86-9.32,1.13-19.76-32.47-10.16-48.28,0,0,.42-.18,1.28-.43,4.27-1.21,19.32-3.94,47.28,6.64,0,0-10.45,16.94-9.32,30.49Z" style="fill:#cde4f9;"/><path d="M212.486,262.239c-6.88-1.99-10.62-5.73-10.62-5.73,0,0-3.57-18.4,23.98-18.44.13,5.44-1.1,17.43-13.36,24.17Z" style="fill:#ef8965;"/><path d="M185.676,148.839s-16.101,13.155-19.011,16.755c2.245-11.883.212-37.349-9.389-50.085-5.193-6.888-4.1-14.32-4.1-14.32,1.36.4,5.79,1.1,9.35,1.63,2.6.38,4.75.67,4.93.7,9.17,34.63,18.22,45.32,18.22,45.32Z" style="fill:#c2cec4; mix-blend-mode:multiply;"/><path d="M225.956,238.069c-5.65,11.3-13.2,15.68-18.33,17.38-3.42,1.12-5.76,1.06-5.76,1.06,0,0-16.57-27.1-19.95-33.88-.24-.48-.63-1.14-1.13-1.95-4.54-7.23-18.82-26.35-27.29-37.57-3.85-5.1-6.5-8.57-6.5-8.57,0,0,28.14-19.67,38.68-25.7.5,1.15,1,2.18,1.5,3.1,4.39,8.08,8.92,7.98,15.82,14.97,12.42,12.61,15.43,54.59,22.96,71.16Z" style="fill:#2a776a;"/><path d="M141.486,130.489l-20,12.11c-.84-1.23-1.31-1.95-1.31-1.95,0,0-16.28-2.18-17.74-12.19-.11-.78-.13-1.61-.05-2.49.34-3.61,1.27-8.81,2.65-14.45,4.92.34,18.206-2.087,28.876-8.137-.85,10.73,7.574,27.107,7.574,27.107Z" style="fill:#fff;"/><path d="M207.626,255.449c-3.42,1.12-5.76,1.06-5.76,1.06,0,0-16.57-27.1-19.95-33.88-.24-.48-.63-1.14-1.13-1.95v-.12l26.73-35.58s-3.93,52.64.11,70.47Z" style="fill:#c2cec4; mix-blend-mode:multiply;"/><path d="M131.466,250.489c-1.59-2.6-3.43-5.05-5.37-7.31-8.14-9.51-17.97-15.66-17.97-15.66,0,0,3.19-7.42,28.23-29.74,38.36-34.17,57.02-38.88,66.89-24.81,1.01,1.43,1.92,3.05,2.76,4.86,14.68,29.36-64,66.26-74.54,72.66Z" style="fill:#358e81;"/><path d="M52.595,84.652s-.188,33.129-1.035,41.318c-.847,8.188-2.259,28.235,11.294,28.235s10.447-13.176,7.623-34.353c-2.823-21.176-4.423-39.812-4.423-39.812,0,0-7.529-6.4-13.459,4.612Z" style="fill:#ffd4b0;"/><path d="M131.466,250.489s-18.64,9.79-23.15,21.65c-4.18,10.95-19.69,29.15-25.13,34.6-.45.45-.83.81-1.13,1.07-3.96,3.48-18.54,21.08-18.54,21.08,0,0-8.47.66-14.12-12.14,3.58-1.62,9.68-11.39,15.88-22.64,8.17-14.79,16.52-32.14,19.51-36.84,5.27-8.29,23.34-29.75,23.34-29.75,12.4-2.06,18.26,5.93,21,13.04,2.01,5.2,2.34,9.93,2.34,9.93Z" style="fill:#ffd4b0;"/><path d="M120.176,140.649s-16.28-2.18-17.74-12.19c2.48-.39,18.03-2.96,30.72-8.14,13.84-5.64-.55,13.83-12.98,20.33Z" style="fill:#c2cec4; mix-blend-mode:multiply;"/><path d="M187.176,151.939c-6.62,5.44-28.62,23.79-33.4,31.21-.1-.01-.19-.02-.28-.04-3.85-5.1-6.5-8.57-6.5-8.57,0,0,28.14-19.67,38.68-25.7.5,1.15,1,2.18,1.5,3.1Z" style="fill:#1b5147;"/><path d="M66.28,79.376l.171-13.927c.037-3.004-2.828-5.197-5.718-4.378l-12.932,3.666c-2.698.765-4.044,3.787-2.808,6.303l6.204,12.633c1.01,2.057,3.406,3.024,5.561,2.245l6.557-2.372c1.76-.637,2.942-2.298,2.965-4.17Z" style="fill:#f7b98b;"/><path d="M66.618,62.629s-1.553-12.518-6.212-11.671c-3.671.988-2.662,13.059-.141,14.4,6.635,3.529,6.353-2.729,6.353-2.729Z" style="fill:#f7b98b;"/><path d="M60.358,62.839c-2.08,5.01-5.08,1.53-5.08,1.53h0c-.09,3.25-4.918,3.154-6.259,1.354-.965,2.145-2.593,2.682-3.561,2.684-.923.002-1.737-.61-2.122-1.449-.945-2.059-2.69-6.977-2.471-8.365,1.28-3.74,4.242-2.955,6.222-2.385,1.84-3.11,5.954-1.356,5.954-1.356,2.54-2.82,5.416-.414,5.416-.414l1.9,8.4Z" style="fill:#ffd4b0;"/><path d="M250.632,175.592s5.685,11.26,9.785,8.891c3.122-2.169-1.9-13.192-4.725-13.603-7.437-1.084-5.06,4.713-5.06,4.713Z" style="fill:#ffd4b0;"/><path d="M256.643,172.906c.268-5.418,4.266-3.154,4.266-3.154h0c-1.012-3.09,3.566-4.629,5.436-3.386.185-2.345-.26-4.679.65-5.008.868-.313,1.841-.012,2.486.648,1.584,1.619,6.683,6.94,6.944,8.32.057,3.952-2.997,4.213-5.053,4.344-.683,3.548-5.147,3.285-5.147,3.285-1.44,3.512-4.959,2.217-4.959,2.217l-4.622-7.267Z" style="fill:#f7b98b;"/><path d="M64.523,59.892l-8.821,2.136c-.772.187-1.106,1.092-.644,1.739.795,1.113,2.279,2.522,4.784,2.744,0,0-3.2,9.506,5.835,9.035,1.393-.953,1.015-10.19.781-14.225-.057-.976-.985-1.66-1.935-1.43Z" style="fill:#ffd4b0;"/><path d="M245.301,159.713l4.538,13.168c.979,2.84,4.415,3.939,6.86,2.192l10.937-7.814c2.282-1.63,2.529-4.929.517-6.881l-10.102-9.8c-1.645-1.596-4.227-1.698-5.993-.237l-5.373,4.445c-1.442,1.193-1.994,3.156-1.384,4.926Z" style="fill:#ffd4b0;"/><path d="M59.841,67.011c-.01,0-.019,0-.029-.001-3.673-.214-5.136-2.895-5.197-3.009-.129-.244-.036-.544.206-.674.241-.129.545-.038.676.204.051.094,1.278,2.301,4.372,2.481.275.016.486.252.47.528-.016.266-.235.471-.499.471Z" style="fill:#ef8965;"/><path d="M49.018,66.223c-.235,0-.444-.166-.491-.405l-1.647-8.553c-.052-.272.125-.534.396-.586.272-.051.533.125.586.396l1.647,8.553c.052.271-.125.534-.396.586-.032.006-.064.009-.095.009Z" style="fill:#ef8965;"/><path d="M54.57,62.988c-.234,0-.443-.165-.49-.403l-1.294-6.541c-.053-.271.123-.534.394-.588.27-.053.534.123.588.394l1.294,6.541c.053.271-.122.534-.393.588-.033.006-.065.009-.098.009Z" style="fill:#ef8965;"/><path d="M113.466,126.319c-.28-1.97-2.44-8.47-4.27-8.43,0,0-3.99-.67-3.57,8.65.43,9.31,11.3,13.27,14.55,11.29,3.24-1.98-6.43-9.53-6.71-11.51ZM117.016,135.009c-2.16,1.66-8.57-1.78-9.22-8.05-.66-6.31.94-6.45.94-6.45,1.26-.03,3.29,4.55,3.48,6.12.2,1.57,6.45,7.11,4.8,8.38Z" style="fill:#1a2c30;"/><path d="M114.524,121.546l3.2-5.365,3.859-.471s-1.223,6.965-.282,9.224c.941,2.259,6.588,8.471,6.588,8.471l-3.953,2.353s-6.4-9.318-6.306-10.729c.094-1.412.094-3.765.094-3.765l-3.2.282Z" style="fill:#1a2c30;"/><path d="M83.186,306.739c-.45.45-.83.81-1.13,1.07-3.96,3.48-18.54,21.08-18.54,21.08,0,0-8.47.66-14.12-12.14,3.58-1.62,9.68-11.39,15.88-22.64,2.94,4.39,8.33,9.77,17.91,12.63Z" style="fill:#cde4f9;"/><path d="M296.216,269.969c-5.07-.91-12.22-1.91-20.16-2.85-.1-8.35-2.81-16.69-4.51-21.11,12.94,3.58,22.7,7.02,22.7,7.02,0,0,4.98,9.41,1.97,16.94Z" style="fill:#a9c8e0;"/><path d="M330.802,303.431c-.45.38-.88.73-1.29,1.06-5.94,4.73-7.24,3.85-9.33-.6-2.23-4.77-17.66-28.88-26.76-33.58,0,0,4.84-6.007.752-17.288-.544-1.5.311-3.139,1.845-3.579,3.927-1.126,8.597-2.771,11.544-4.052,1.03-.44,1.85-.85,2.36-1.17,2.33-1.5,6.65-3.42,10.29,10.74,3.64,14.15,17.64,42.58,10.59,48.47Z" style="fill:#cde4f9;"/><path d="M330.802,303.431c-.45.38-.88.73-1.29,1.06-1.87-12.07-10.8-40.77-14.38-46.14-3.11-4.67-6.22-10.4-7.57-12.96,1.03-.44,1.85-.85,2.36-1.17,2.33-1.5,6.65-3.42,10.29,10.74,3.64,14.15,17.64,42.58,10.59,48.47Z" style="fill:#a9c8e0;"/><path d="M63.516,328.889c.899.347.725,1.416.274,2.267-1.766,3.331-3.752,7.745-5.004,11.033-.62,1.64-1.07,2.99-1.21,3.8-.49,2.72-2.03,7.2-14.87.22C29.866,339.229-.484,330.119.006,320.939c.05-.86.1-1.64.16-2.35.62-6.9,2.2-7.19,6.74-5.73,5,1.61,33.16,6.74,42.81,3.28,0,0,1.75,8.102,13.8,12.75Z" style="fill:#fff;"/><path d="M58.786,342.189c-.62,1.64-1.07,2.99-1.21,3.8-.49,2.72-2.03,7.2-14.87.22C29.866,339.229-.484,330.119.006,320.939c.05-.86.1-1.64.16-2.35,6.89,4.41,29.96,18.9,37.93,20.18,7.85,1.26,14.13.94,20.69,3.42Z" style="fill:#cde4f9;"/><path d="M138.806,71.479s-1.88,5.36-13.27,14.77c-11.39,9.42-5.93-5.83-5.93-5.83l.94-.85-3.82-10.05-1.26-3.31,13.56-14.64,1.87-2.02.81,2.24,6.16,17.07.94,2.62Z" style="fill:#f7b98b;"/><path d="M137.866,68.859c-9.92,2.83-16.92,1.96-21.14.66l-1.26-3.31,13.56-14.64c.45-.06.88-.05,1.31,0,.41.05.87.13,1.37.22l6.16,17.07Z" style="fill:#ef8965;"/><path d="M149.347,35.9s-2.494,13.976-9.976,20.471c-2.153.776-6.918,2.353-9.035-3.529-2.118-5.882-.988-21.318-.988-21.318l20,4.377Z" style="fill:#265454;"/><path d="M130.896,49.549c-.75,17.03-14.11,18.54-23.71,20.8-6.87-5.93-9.23-17.51-9.23-17.51l-6.86-1.58c-.65-.15-.97-.89-.61-1.45.01-.02.02-.04.04-.06,1.16-1.86,3.61-5.69,6.87-10.27-2.26-6.69-1.04-14.12-1.04-14.12,0,0,25.32,8.47,35.02,9.69,9.69,1.23,4.98,11.11-.48,14.5Z" style="fill:#ffd4b0;"/><path d="M96.356,25.359s11.58,9.6,26.921,10.447l1.035-2.823-27.956-7.623Z" style="fill:#f7b98b;"/><path d="M121.865,33.5s-1.365,8.612,1.365,12.094c2.729,3.482,1.788-9.976,7.812-11.012,6.023-1.035-9.176-1.082-9.176-1.082Z" style="fill:#306668;"/><path d="M151.496,34.749c.05.82-.6,1.52-1.42,1.52-5.12.01-22.4-.3-37.89-4.47-5.76-1.56-11.28-3.64-15.83-6.44,0,0-3.2-2.82,3.11-10.17,6.31-7.34,16.56-4.7,16.56-4.7l30.31,13.8,3.2,1.45c.78-.04,1.45.55,1.5,1.34l.46,7.67Z" style="fill:#679968;"/><path d="M106.246,12.369s-3.816,12.378,4.466,12.331c4.518.235,2.044-8.551,2.044-8.551l-6.51-3.78Z" style="fill:#4c7a4c;"/><path d="M149.536,25.739c-5.65.37-25.2-2.07-36.78-9.59h-.01l-.01-.01s1.41,7.81-4.33,7.71c-5.74-.09-2.16-11.48-2.16-11.48,0,0-7.35,2.07-9.89,12.99-2.24-.66-5-2.09-6.05-4.16-1.4-2.73.15-6.54,9.72-11.09-.79-.02-1.5-.12-2.09-.29-3.99-1.09-3.2-5.02,6.71-8.46,9.09-3.16,34.01-1.44,42.29,11.95,1.4,2.26,2.33,4.84,2.63,7.79.15,1.46.15,3-.03,4.64Z" style="fill:#306668;"/><path d="M120.547,79.57s-11.953,17.318-2.071,18.447c9.882,1.129,19.482-19.2,20.329-26.541.847-7.341-18.259,8.094-18.259,8.094Z" style="fill:#f7b98b;"/><path d="M151.496,34.749c.05.82-.6,1.52-1.42,1.52-5.12.01-22.4-.3-37.89-4.47,26.09,1.47,32.55-4.58,34.15-7.51l3.2,1.45c.78-.04,1.45.55,1.5,1.34l.46,7.67Z" style="fill:#4c7a4c;"/><path d="M97.956,52.839l-6.86-1.58c-.65-.15-.97-.89-.61-1.45.01-.02.02-.04.04-.06,2.1-.36,6.19-.97,7.43-.63,1.7.47,0,3.72,0,3.72Z" style="fill:#ef8965;"/><path d="M133.744,39.75c0,.2-.19.36-.39.36-.04-.01-3.61-.09-4.48,2.28-.02.02-.03.04-.02.06-.28,1.05-.44,2.3-.4,3.77,0,.2-.16.38-.37.38h-.01c-.2,0-.37-.16-.37-.36-.04-1.42.11-2.65.36-3.71.03-.12.05-.23.08-.34v-.01c1-3.61,3.28-5.04,3.41-5.12.17-.11.4-.05.51.13.11.17.06.4-.12.51-.09.05-1.26.8-2.22,2.57,1.55-.97,3.54-.91,3.66-.91.21.01.37.18.36.39Z" style="fill:#ef8965;"/><path d="M106.246,12.369s-7.35,2.07-9.89,12.99c-2.24-.66-5-2.09-6.05-4.16,1.88-7.65,15.94-8.83,15.94-8.83Z" style="fill:#265454;"/><path d="M149.536,25.739c-5.65.37-25.2-2.07-36.78-9.59.84.23,26.97,7.36,36.81,4.95.15,1.46.15,3-.03,4.64Z" style="fill:#265454;"/><path d="M146.936,13.309c-5.82-1.47-20.47-5.28-18.2-6.12,2.82-1.03,7.34-.28,7.34-.28,0,0-8.94-3.86-23.53-4.14s-12.52,7.34-12.52,7.34l-2.09-.29c-3.99-1.09-3.2-5.02,6.71-8.46,9.09-3.16,34.01-1.44,42.29,11.95Z" style="fill:#437575;"/><path d="M105.771,40.747c0,2.001-1.117,3.624-2.494,3.624s-2.494-1.622-2.494-3.624,1.117-3.623,2.494-3.623,2.494,1.622,2.494,3.623Z" style="fill:#1f2b1f;"/><path d="M98.679,34.285l1.408,1.229c.183.16.444.189.652.063.764-.461,2.806-1.496,5.702-1.485.605.002.803-.827.249-1.072-2.519-1.11-5.565-1.449-8.003.408-.275.21-.268.629-.008.857Z" style="fill:#1f2b1f;"/><path d="M105.916,62.539c-.18.03-.36.02-.54-.03-1.78-.47-3.6-4.54-3.6-4.54,0,0-.6-1.3-.55-2.49.04-1.08.61-2.08,2.62-1.98,2.25.11,3.89.68,4.99,1.49.37.26.67.56.91.87,1.89,2.39.34,5.85-3.83,6.68Z" style="fill:#cc2525;"/><path d="M108.836,54.989c-1.66.83-4.2,2.05-5.46,2.32-1.14.25-1.8-.86-2.15-1.83.04-1.08.61-2.08,2.62-1.98,2.25.11,3.89.68,4.99,1.49Z" style="fill:snow;"/><path d="M105.916,62.539c-.18.03-.36.02-.54-.03.34-2.29,1.36-5.78,4.37-6.65,1.89,2.39.34,5.85-3.83,6.68Z" style="fill:#f26464;"/></g></g></g></svg>